PathFileType	4	(X/Y/Z)	Kaydara																																																																																																																									
DataRate	CameraRate	NumFrames	NumMarkers	Units	OrigDataRate	OrigDataStartFrame	OrigNumFrames																																																																																																																					
30	30	4	41	mm	30	203	300																																																																																																																					
Frame#	Time	PAIB_LFHD			PAIB_RFHD			PAIB_LBHD			PAIB_RBHD			PAIB_LFTShould			PAIB_RFTShould			PAIB_LRRShould			PAIB_RRRShould			PAIB_T10			PAIB_STRN			PAIB_TRUN			PAIB_LSHO			PAIB_LUPA			PAIB_LELB			PAIB_LFRM			PAIB_LWRA			PAIB_LWRB			PAIB_LFIN			PAIB_RSHO			PAIB_RUPA			PAIB_RELB			PAIB_RFRM			PAIB_RWRA			PAIB_RWRB			PAIB_RFIN			PAIB_LFWT			PAIB_RFWT			PAIB_LBWT			PAIB_RBWT			PAIB_LTHI			PAIB_LKNE			PAIB_LSHN			PAIB_LANK			PAIB_LHEE			PAIB_LTOE			PAIB_RTHI			PAIB_RKNE			PAIB_RSHN			PAIB_RANK			PAIB_RHEE			PAIB_RTOE		
		X1	Y1	Z1	X2	Y2	Z2	X3	Y3	Z3	X4	Y4	Z4	X5	Y5	Z5	X6	Y6	Z6	X7	Y7	Z7	X8	Y8	Z8	X9	Y9	Z9	X10	Y10	Z10	X11	Y11	Z11	X12	Y12	Z12	X13	Y13	Z13	X14	Y14	Z14	X15	Y15	Z15	X16	Y16	Z16	X17	Y17	Z17	X18	Y18	Z18	X19	Y19	Z19	X20	Y20	Z20	X21	Y21	Z21	X22	Y22	Z22	X23	Y23	Z23	X24	Y24	Z24	X25	Y25	Z25	X26	Y26	Z26	X27	Y27	Z27	X28	Y28	Z28	X29	Y29	Z29	X30	Y30	Z30	X31	Y31	Z31	X32	Y32	Z32	X33	Y33	Z33	X34	Y34	Z34	X35	Y35	Z35	X36	Y36	Z36	X37	Y37	Z37	X38	Y38	Z38	X39	Y39	Z39	X40	Y40	Z40	X41	Y41	Z41
																																																																																																																												
188	6.733	299.75405	1582.38617	513.27637	115.86629	1591.25488	507.6123	313.1419	1618.806	389.76479	110.55882	1633.302	399.8621	268.60224	1371.7868	395.98045	148.09411	1368.29269	401.05907	272.88942	1468.11951	270.46286	119.27545	1463.58261	286.95351	187.37232	1329.81049	161.78143	216.50894	1298.03757	418.57639	214.50253	1194.32533	416.82304	393.93089	1402.34985	324.99268	446.13625	1177.4633	291.72293	463.89591	1095.91385	242.71189	471.18557	979.62761	291.28256	400.73063	878.83934	387.38377	438.51959	851.7659	319.62156	446.57768	820.16174	385.55393	18.59534	1385.73242	363.31718	-55.54671	1219.82315	316.52353	-83.76382	1103.43887	303.77893	-83.46426	970.01358	356.90098	2.59681	891.18362	460.80402	-70.56311	863.04771	426.52355	-49.94171	842.87109	495.25768	310.13832	946.11702	348.36002	75.29717	940.53772	362.02419	243.45675	992.64977	134.48969	97.3491	1001.42525	142.50506	309.62923	698.06381	197.98864	355.1194	492.30469	386.10981	326.98559	303.49661	349.19956	316.64295	147.54049	214.42366	255.35837	149.33863	172.77872	324.89155	63.61709	361.82724	57.24964	698.52249	146.70525	76.22295	453.66695	222.88694	153.2396	274.83187	229.16956	137.04697	76.32565	137.01326	197.67315	91.14586	82.22551	161.58627	51.63012	308.13063
189	6.767	300.55902	1581.29272	531.26049	116.59126	1590.07736	526.12656	313.58322	1617.62878	407.6902	111.03895	1632.06573	418.35571	269.03028	1370.31143	414.04255	148.55823	1366.83441	419.28867	273.07089	1466.72287	288.48692	119.59357	1462.31552	305.41151	187.29958	1328.62289	179.97091	216.95971	1296.53183	436.58318	214.87614	1192.84851	434.69944	394.01955	1400.60379	342.58801	445.88585	1175.53551	310.29991	463.37215	1093.6969	262.07371	469.04781	978.04825	312.96747	396.3084	879.9469	410.28332	435.25242	851.37032	343.30292	441.52264	820.86792	410.44514	19.11185	1384.46503	381.94931	-55.09914	1218.42018	336.1198	-83.16878	1101.93382	323.89538	-81.92177	968.67592	377.51415	5.6539	890.51056	480.73524	-67.83069	861.93924	447.32327	-46.23971	842.00134	515.87444	310.16565	944.72664	366.26686	75.21816	938.43506	379.38709	244.43914	991.34125	152.50028	98.28121	1000.34729	160.19098	308.1782	696.99806	219.43687	351.60866	493.55656	411.95511	326.70448	302.01662	399.92672	318.08941	128.22001	289.81966	256.54987	123.39924	248.82086	325.77686	63.00406	448.38329	57.98682	699.15642	159.90729	76.84347	453.06633	232.03867	153.34931	273.91878	234.25257	137.39656	77.43096	137.83481	198.22971	93.1741	83.42561	161.40232	51.32455	307.96776
190	6.8	301.80277	1579.94232	549.95293	117.91614	1588.95218	545.14221	314.65796	1616.08292	426.29723	112.10696	1630.74997	437.31586	269.82681	1368.6116	432.85454	149.36638	1365.22751	438.04852	273.89694	1465.14389	307.36034	120.42153	1460.90332	324.43161	187.98794	1327.33063	198.68534	217.65415	1294.87137	455.29125	215.47726	1191.20461	453.30029	394.65157	1398.74359	361.37737	446.17802	1173.61916	329.57642	463.57185	1091.58508	281.73534	468.0051	976.26183	333.9616	393.66802	879.99649	432.00726	432.51709	850.14153	366.01467	438.32096	820.5883	433.23112	20.12634	1382.8154	400.9203	-53.88326	1216.70151	355.39433	-81.63778	1100.07126	343.36987	-79.92879	966.75995	396.64143	8.40533	888.5363	499.07681	-65.12882	859.85863	466.08406	-42.97087	839.78416	534.39991	310.16352	942.95143	385.25356	75.24819	936.48705	397.18884	245.80708	990.0116	171.22952	99.67109	999.18762	178.28632	306.95297	695.53421	239.16393	347.96562	492.68036	434.10728	324.41036	302.22137	448.9798	318.17434	114.75857	365.51228	256.54232	104.71169	325.02186	322.97909	65.52704	532.89093	59.12736	699.83688	172.97775	77.34558	452.64046	240.3178	153.5536	273.25979	239.34919	138.28651	78.94331	138.35785	199.18537	95.61993	84.84846	160.97261	51.25895	307.75949
191	6.833	303.45955	1578.14056	569.51504	119.57693	1587.62314	564.70142	316.37957	1613.97003	445.73689	113.89906	1629.28848	456.80611	270.95999	1366.67465	452.53143	150.4737	1363.37814	457.43198	275.43327	1463.28384	327.12605	121.92807	1459.19617	343.91102	189.71651	1325.66345	218.17373	218.60174	1292.96631	474.71291	216.24914	1189.26147	472.74467	395.87898	1396.71494	381.29845	446.97533	1171.46355	349.69887	464.36378	1089.45435	301.96787	468.01334	974.16161	354.52602	392.76077	878.61015	452.57671	431.62418	848.21396	386.84635	436.95755	818.70598	453.98499	21.5064	1380.98877	420.1263	-51.95562	1214.68346	374.49024	-79.47301	1098.06946	362.27268	-77.56337	964.34784	414.4627	10.82796	884.90494	515.53089	-62.58055	856.86012	482.91504	-40.12155	836.17622	550.94597	310.07483	940.31532	405.56156	75.24306	934.28703	415.60596	247.77193	988.61786	191.28353	101.98796	997.90077	196.87929	306.37123	693.60344	257.97865	344.36958	489.7068	452.87579	321.14677	304.61575	492.80167	315.97681	107.58577	436.80908	254.85029	92.49076	397.08305	317.74817	76.09428	610.96661	60.8091	700.84579	186.44382	77.77935	452.48562	248.92956	153.73988	272.81788	244.42497	139.09052	80.68871	139.11757	200.38694	98.39462	86.4185	160.50407	51.16441	307.63512
